HIERARCHY
ROOT joint_Root
{
	OFFSET 0.0 0.0 0.0
	CHANNELS 6 Xposition Yposition Zposition Zrotation Xrotation Yrotation 
	JOINT Hips
	{
		OFFSET -0.726466 93.3139 -2.00062
		CHANNELS 6 Xposition Yposition Zposition Zrotation Xrotation Yrotation 
		JOINT Spine
		{
			OFFSET 15.7357 0.0 0.0
			CHANNELS 6 Xposition Yposition Zposition Zrotation Xrotation Yrotation 
			JOINT Chest
			{
				OFFSET 8.98455 -0.406207 0.0
				CHANNELS 6 Xposition Yposition Zposition Zrotation Xrotation Yrotation 
				JOINT Neck
				{
					OFFSET 16.3773 0.0 0.0
					CHANNELS 6 Xposition Yposition Zposition Zrotation Xrotation Yrotation 
					JOINT Head
					{
						OFFSET 6.45672 0.0 0.0
						CHANNELS 6 Xposition Yposition Zposition Zrotation Xrotation Yrotation 
						End Site
						{
							OFFSET 0.0 0.0 0.0
						}
					}
				}
				JOINT Shoulder_L
				{
					OFFSET 12.9942 -0.242716 4.98039
					CHANNELS 6 Xposition Yposition Zposition Zrotation Xrotation Yrotation 
					JOINT UpperArm_L
					{
						OFFSET 5.34809 0.0 0.0
						CHANNELS 6 Xposition Yposition Zposition Zrotation Xrotation Yrotation 
						JOINT LowerArm_L
						{
							OFFSET 24.3286 1.87007e-05 0.0
							CHANNELS 6 Xposition Yposition Zposition Zrotation Xrotation Yrotation 
							JOINT Hand_L
							{
								OFFSET 22.2916 0.0 0.0
								CHANNELS 6 Xposition Yposition Zposition Zrotation Xrotation Yrotation 
								End Site
								{
									OFFSET 0.0 0.0 0.0
								}
							}
						}
					}
				}
				JOINT Shoulder_R
				{
					OFFSET 12.9945 -0.242716 -4.98039
					CHANNELS 6 Xposition Yposition Zposition Zrotation Xrotation Yrotation 
					JOINT UpperArm_R
					{
						OFFSET -5.34813 0.0 0.0
						CHANNELS 6 Xposition Yposition Zposition Zrotation Xrotation Yrotation 
						JOINT LowerArm_R
						{
							OFFSET -24.3289 0.000322201 0.0
							CHANNELS 6 Xposition Yposition Zposition Zrotation Xrotation Yrotation 
							JOINT Hand_R
							{
								OFFSET -22.2915 -0.000108084 0.0
								CHANNELS 6 Xposition Yposition Zposition Zrotation Xrotation Yrotation 
								End Site
								{
									OFFSET 0.0 0.0 0.0
								}
							}
						}
					}
				}
			}
		}
		JOINT UpperLeg_L
		{
			OFFSET -2.19248 -6.46944 0.0
			CHANNELS 6 Xposition Yposition Zposition Zrotation Xrotation Yrotation 
			JOINT LowerLeg_L
			{
				OFFSET 39.0811 0.0 -1.23785e-05
				CHANNELS 6 Xposition Yposition Zposition Zrotation Xrotation Yrotation 
				JOINT Foot_L
				{
					OFFSET 40.9854 0.0 -1.26872e-05
					CHANNELS 6 Xposition Yposition Zposition Zrotation Xrotation Yrotation 
					JOINT Toes_L
					{
						OFFSET 11.7543 0.0 0.0
						CHANNELS 6 Xposition Yposition Zposition Zrotation Xrotation Yrotation 
						End Site
						{
							OFFSET 0.0 0.0 0.0
						}
					}
				}
			}
		}
		JOINT UpperLeg_R
		{
			OFFSET -2.19251 6.46944 0.0
			CHANNELS 6 Xposition Yposition Zposition Zrotation Xrotation Yrotation 
			JOINT LowerLeg_R
			{
				OFFSET -39.0811 -0.00228153 -0.0401928
				CHANNELS 6 Xposition Yposition Zposition Zrotation Xrotation Yrotation 
				JOINT Foot_R
				{
					OFFSET -40.9854 0.0 0.0
					CHANNELS 6 Xposition Yposition Zposition Zrotation Xrotation Yrotation 
					JOINT Toes_R
					{
						OFFSET -11.7543 0.0 0.0
						CHANNELS 6 Xposition Yposition Zposition Zrotation Xrotation Yrotation 
						End Site
						{
							OFFSET 0.0 0.0 0.0
						}
					}
				}
			}
		}
	}
}
MOTION
Frames:	4
Frame Time:	0.0333333
0.000000 0.000000 0.000000 0.000000 0.000000 -0.000000 -0.972727 91.885300 -1.325860 87.761700 -0.908669 4.923550 15.735700 0.000005 -0.000001 87.650200 84.660800 -86.828700 8.984550 -0.406207 -0.000000 2.907300 -0.472212 1.653230 16.377300 -0.000001 -0.000001 3.024530 -4.147610 1.815020 6.456720 -0.000001 -0.000000 0.333284 -2.812480 -4.160390 12.994200 -0.242716 4.980390 -90.155800 0.530725 -73.637600 5.348090 -0.000007 -0.000001 -62.375300 48.320100 -17.480500 24.328600 0.000019 0.000005 3.478760 6.782630 -27.234800 22.291600 -0.000001 0.000005 5.161180 5.533130 -7.933760 12.994500 -0.242716 -4.980390 87.991500 5.862600 -71.051000 -5.348130 -0.000001 -0.000004 -64.315100 35.911100 -17.335700 -24.328900 0.000322 -0.000009 2.239490 7.019410 -17.752800 -22.291500 -0.000108 -0.000004 9.550330 5.537170 -8.114000 -2.192480 -6.469440 -0.000000 -168.757000 -14.378700 -1.121470 39.081100 -0.000007 -0.000012 -0.202117 0.484235 22.655600 40.985400 -0.000006 -0.000013 -5.753980 3.612560 -64.880700 11.754300 -0.000000 0.000003 -0.000041 -0.000475 -16.596000 -2.192510 6.469440 -0.000001 173.907000 19.895000 -179.232000 -39.081100 -0.002282 -0.040193 -0.044116 0.126290 20.587000 -40.985400 0.000008 0.000006 -2.952780 2.560010 -64.341600 -11.754300 -0.000006 -0.000006 -0.006103 -0.071770 -19.494100
0.000000 0.000000 0.000000 0.000000 0.000000 -0.000000 -0.950182 91.892000 -1.354890 87.800100 -0.858462 4.957580 15.735700 0.000005 -0.000001 87.385600 84.600100 -86.610800 8.984550 -0.406207 -0.000000 3.026720 -0.524153 1.561710 16.377300 -0.000001 -0.000001 2.890940 -4.147090 1.744320 6.456720 -0.000001 -0.000000 0.254051 -2.759690 -4.390130 12.994200 -0.242716 4.980390 -90.149600 0.508830 -73.617100 5.348090 -0.000007 -0.000001 -60.096400 50.449300 -18.518200 24.328600 0.000019 0.000005 4.174230 7.502380 -29.201200 22.291600 -0.000001 0.000005 5.051240 5.545950 -8.516600 12.994500 -0.242716 -4.980390 87.985300 5.834620 -70.912000 -5.348130 -0.000001 -0.000004 -64.160500 33.971100 -17.504500 -24.328900 0.000322 -0.000009 2.315070 6.949980 -18.483200 -22.291500 -0.000108 -0.000004 10.025100 5.546870 -8.558200 -2.192480 -6.469440 -0.000000 -168.808000 -14.373400 -1.101670 39.081100 -0.000007 -0.000012 -0.200696 0.481779 22.615600 40.985400 -0.000006 -0.000013 -5.719220 3.679460 -64.836200 11.754300 -0.000000 0.000003 -0.000047 -0.000539 -16.598500 -2.192510 6.469440 -0.000001 173.854000 19.914900 -179.223000 -39.081100 -0.002282 -0.040193 -0.043207 0.123762 20.603200 -40.985400 0.000008 0.000006 -2.872720 2.524340 -64.333800 -11.754300 -0.000006 -0.000006 -0.006039 -0.071193 -19.470500
0.000000 0.000000 0.000000 0.000000 0.000000 -0.000000 -0.929848 91.896000 -1.393950 87.775400 -0.773771 4.979280 15.735700 0.000005 -0.000001 86.736600 84.548600 -85.989100 8.984550 -0.406207 -0.000000 3.124030 -0.650272 1.511330 16.377300 -0.000001 -0.000001 2.842030 -4.092890 1.639220 6.456720 -0.000001 -0.000000 0.060159 -2.648350 -4.676550 12.994200 -0.242716 4.980390 -90.137700 0.465735 -73.529500 5.348090 -0.000007 -0.000001 -57.395000 52.533200 -19.334400 24.328600 0.000019 0.000005 4.754230 7.531950 -32.395500 22.291600 -0.000001 0.000005 5.018230 5.562340 -9.299460 12.994500 -0.242716 -4.980390 87.963300 5.812100 -70.649700 -5.348130 -0.000001 -0.000004 -63.583600 30.906800 -18.041300 -24.328900 0.000322 -0.000009 2.174310 6.174240 -19.453000 -22.291500 -0.000108 -0.000004 10.995900 5.551130 -8.758300 -2.192480 -6.469440 -0.000000 -168.808000 -14.344400 -1.153080 39.081100 -0.000007 -0.000012 -0.200282 0.479716 22.660900 40.985400 -0.000006 -0.000013 -5.690950 3.690930 -64.823100 11.754300 -0.000000 0.000003 -0.000042 -0.000489 -16.596600 -2.192510 6.469440 -0.000001 173.868000 19.993800 -179.212000 -39.081100 -0.002282 -0.040193 -0.040258 0.115991 20.591500 -40.985400 0.000008 0.000006 -2.802670 2.484770 -64.306300 -11.754300 -0.000006 -0.000006 -0.005985 -0.070700 -19.450500
0.000000 0.000000 0.000000 0.000000 0.000000 -0.000000 -0.866375 91.904700 -1.446550 87.824800 -0.848927 4.992500 15.735700 0.000005 -0.000001 86.199000 84.508600 -85.497700 8.984550 -0.406207 -0.000000 3.197790 -0.755219 1.422190 16.377300 -0.000001 -0.000001 2.824930 -4.025890 1.575370 6.456720 -0.000001 -0.000000 -0.084170 -2.440440 -5.209710 12.994200 -0.242716 4.980390 -90.111100 0.372699 -73.401600 5.348090 -0.000007 -0.000001 -54.206000 54.617100 -19.987700 24.328600 0.000019 0.000005 5.260040 7.082700 -36.747500 22.291600 -0.000001 0.000005 5.292320 5.583900 -10.422900 12.994500 -0.242716 -4.980390 87.988800 5.643960 -70.350000 -5.348130 -0.000001 -0.000004 -62.355200 27.029600 -19.293900 -24.328900 0.000322 -0.000009 1.965170 5.231240 -20.634600 -22.291500 -0.000108 -0.000004 11.479800 5.550190 -8.716730 -2.192480 -6.469440 -0.000000 -168.886000 -14.436300 -1.133690 39.081100 -0.000007 -0.000012 -0.198835 0.477148 22.622500 40.985400 -0.000006 -0.000013 -5.641240 3.721130 -64.786600 11.754300 -0.000000 0.000003 -0.000040 -0.000467 -16.595700 -2.192510 6.469440 -0.000001 173.800000 19.908200 -179.253000 -39.081100 -0.002282 -0.040193 -0.038718 0.111939 20.583400 -40.985400 0.000008 0.000006 -2.808740 2.501330 -64.246900 -11.754300 -0.000006 -0.000006 -0.005921 -0.070116 -19.426700
